<svg id="Calque_1" data-name="Calque 1" xmlns="http://www.w3.org/2000/svg" viewBox="0 0 374.6 189.76"><title>kanji-card-app-logo</title><g opacity="0.65"><path d="M618.39,330.66a44.29,44.29,0,0,1,8.64,9.59,70.4,70.4,0,0,1,9.19-5.56c-10.46-16.62-27.4-25.19-44.39-24.53C577.67,318,566.36,328,559.09,339.42c.42.28.85.53,1.26.83C574,319.82,600,315.52,618.39,330.66Z" transform="translate(-495.7 -292.01)" fill="#f91e1e"/><path d="M651.74,409.55c-19.2-35.45-60.66-46.91-92.61-25.6a66.83,66.83,0,0,0-5.59,4.2,60.31,60.31,0,0,0,5.06,10.18c18.91-16.53,46-18.55,67-2.9a60.34,60.34,0,0,1,15.71,17.43A65.38,65.38,0,0,1,651.74,409.55Z" transform="translate(-495.7 -292.01)" fill="#f91e1e"/><path d="M627.25,420.67a70.51,70.51,0,0,1,9.2-5.56C620,389,587.7,382.67,564.21,400.88c-.86.66-1.67,1.39-2.48,2.1a75.57,75.57,0,0,0,7.2,8.36c14.3-12,34.55-12.7,49.68-.26A43.78,43.78,0,0,1,627.25,420.67Z" transform="translate(-495.7 -292.01)" fill="#f91e1e"/><path d="M648.82,315.15a84.21,84.21,0,0,1,7.24,11.12c.53-5.87,5-10.33,9.94-10.36v0c5.68,0,10.14,4.49,10.68,10.38A80.65,80.65,0,0,1,684,315.14c-3.8-6.69-10.43-10.76-17-10.77h0A20.63,20.63,0,0,0,648.82,315.15Z" transform="translate(-495.7 -292.01)" fill="#f91e1e"/><path d="M671,327.34a5.35,5.35,0,0,0-5-5.6v-.08s-4.8,2.58-4.8,5.76v.21c1.71-.14,5.8-.2,5.8-.2h0l4,.2Z" transform="translate(-495.7 -292.01)" fill="#f91e1e"/><path d="M774.72,367.7a57.66,57.66,0,0,0-5.28,7.06,69.54,69.54,0,0,1,9.19,5.56,45.05,45.05,0,0,1,5.94-7.13c.1-1.29.15-2.6.15-3.91a51.86,51.86,0,0,0-1-9.66A54,54,0,0,0,774.72,367.7Z" transform="translate(-495.7 -292.01)" fill="#f91e1e"/><path d="M609.67,367h.06l-1,2.21a64,64,0,0,1,10.41,3.31,32.1,32.1,0,0,1,3.2-4.52h-.07C632.79,353.69,666,344.72,666,344.72h0s33.72,8.86,44.19,23.29h.46a23,23,0,0,1,3.35,4.51,65.38,65.38,0,0,1,10.39-3.31,3.89,3.89,0,0,0-.79-1.2h-.37C710.84,346.22,667,333.18,667,333.18h0S621.66,346.85,609.67,367Z" transform="translate(-495.7 -292.01)" fill="#f91e1e"/><path d="M755,368h.06l-1,1.2a64,64,0,0,1,10.41,3.31,33.07,33.07,0,0,1,3.2-4.51h-.07a56.28,56.28,0,0,1,14.69-14.22,57.74,57.74,0,0,0-4.45-10.48A68.53,68.53,0,0,0,755,368Z" transform="translate(-495.7 -292.01)" fill="#f91e1e"/><path d="M608.84,424.58a27.69,27.69,0,0,1,6.29,7A73,73,0,0,1,623,424c-11.81-17.53-34-21.32-50-8.76a99.55,99.55,0,0,0,9.23,7.22A23.78,23.78,0,0,1,608.84,424.58Z" transform="translate(-495.7 -292.01)" fill="#f91e1e"/><path d="M666,430.89h0c-11.6,0-22.78,4.72-31.64,12.54q8.11,1.56,16.68,2.35a38.39,38.39,0,0,1,16-3.36h0a37.47,37.47,0,0,1,15.38,3.48c5.71-.48,11.3-1.23,16.72-2.23A49,49,0,0,0,666,430.89Z" transform="translate(-495.7 -292.01)" fill="#f91e1e"/><path d="M637,303.22a73,73,0,0,1,7.87,7.58c4.85-7.63,12.74-12.17,21.16-12.18v0c8.44,0,16.35,4.54,21.21,12.19a74,74,0,0,1,7.87-7.58,37.87,37.87,0,0,0-10.38-10.32,176.79,176.79,0,0,0-37.75.27A38.21,38.21,0,0,0,637,303.22Z" transform="translate(-495.7 -292.01)" fill="#f91e1e"/><path d="M666,413.6h0c-19.46,0-37.5,9.75-49.86,25.21,3.79,1.21,7.7,2.29,11.7,3.23,10.19-10.46,23.77-16.9,39.16-16.91h0c14.68,0,28.41,6.55,38.62,17.2,4-.91,7.93-1.95,11.73-3.13C704.65,423.09,686.22,413.61,666,413.6Z" transform="translate(-495.7 -292.01)" fill="#f91e1e"/><path d="M676.9,406.69a81.58,81.58,0,0,1,7.27-11.13A20.62,20.62,0,0,0,666,384.79h0c-6.52,0-13.16,4.08-17,10.78a83.55,83.55,0,0,1,7.24,11.12c.53-5.87,5-10.33,10.72-10.36v0C671.9,396.31,676.37,400.8,676.9,406.69Z" transform="translate(-495.7 -292.01)" fill="#f91e1e"/><path d="M717.54,415.81a38.74,38.74,0,0,0-7.35,8.16,73.93,73.93,0,0,1,7.86,7.58c7.7-12.13,22.31-15.65,33.75-8.63a99.12,99.12,0,0,0,9.21-7.08A33.47,33.47,0,0,0,717.54,415.81Z" transform="translate(-495.7 -292.01)" fill="#f91e1e"/><path d="M672,407.84c-.24-3.16-6-5.76-6-5.76h0s-4.58,2.58-4.58,5.76v.21c1.72-.14,5.58-.2,5.58-.2h0c1.67,0,3.35.06,5,.2Z" transform="translate(-495.7 -292.01)" fill="#f91e1e"/><path d="M704.49,383.94a71.57,71.57,0,0,0-23.07,25.6,65,65,0,0,1,10.41,3.31c17.52-29.07,53-36.88,79.17-17.43a59,59,0,0,1,4.58,3.79,61.06,61.06,0,0,0,5.2-10C759.4,370.63,729.13,367.5,704.49,383.94Z" transform="translate(-495.7 -292.01)" fill="#f91e1e"/><path d="M709.56,400.87a55.19,55.19,0,0,0-12.82,14.23,69.54,69.54,0,0,1,9.19,5.56c13.64-20.43,39.63-24.72,58-9.59.38.32.7.71,1.08,1a76.43,76.43,0,0,0,7.31-8.31C754.84,387.65,729.14,385.69,709.56,400.87Z" transform="translate(-495.7 -292.01)" fill="#f91e1e"/><path d="M728.24,428.64a22,22,0,0,0-6.55,7.26c.37.49.7,1,1.07,1.51a130.66,130.66,0,0,0,23.51-10.93A18.92,18.92,0,0,0,728.24,428.64Z" transform="translate(-495.7 -292.01)" fill="#f91e1e"/><path d="M589,368.2a67.56,67.56,0,0,1,10.16,0A5.2,5.2,0,1,0,588.8,368h.2Z" transform="translate(-495.7 -292.01)" fill="#f91e1e"/><path d="M633.06,299.91a43.53,43.53,0,0,1,4.27-5.33c-3.24.56-6.41,1.21-9.53,1.94C629.59,297.58,631.35,298.69,633.06,299.91Z" transform="translate(-495.7 -292.01)" fill="#f91e1e"/><path d="M699.71,299.9c1.86-1.33,3.81-2.54,5.8-3.69q-5.12-1.15-10.43-2A46.63,46.63,0,0,1,699.71,299.9Z" transform="translate(-495.7 -292.01)" fill="#f91e1e"/><path d="M681.2,329.12a65,65,0,0,1,10.41,3.31c9.6-15.93,24.58-25.42,40.48-27.6a146,146,0,0,0-18.26-6.51,65.7,65.7,0,0,0-9.57,5.2A71.54,71.54,0,0,0,681.2,329.12Z" transform="translate(-495.7 -292.01)" fill="#f91e1e"/><path d="M744.16,367.19A5.2,5.2,0,1,0,733.8,367h.2v.2A67.56,67.56,0,0,1,744.16,367.19Z" transform="translate(-495.7 -292.01)" fill="#f91e1e"/><path d="M587.9,426.13A128.67,128.67,0,0,0,610.76,437c.26-.35.49-.73.76-1.07C606.42,426.91,596.64,423.18,587.9,426.13Z" transform="translate(-495.7 -292.01)" fill="#f91e1e"/><path d="M564.84,367h.46c1.17,2.12,2.29,3.79,3.35,5.52A65.38,65.38,0,0,1,579,369.21a4.52,4.52,0,0,0-.79-1.21h-.37a69.92,69.92,0,0,0-21.57-23.72A57,57,0,0,0,552.05,355,72.26,72.26,0,0,1,564.84,367Z" transform="translate(-495.7 -292.01)" fill="#f91e1e"/><path d="M550.36,375.3a48.1,48.1,0,0,1,4.22,5.26,70.5,70.5,0,0,1,9.16-5.56,55.74,55.74,0,0,0-5.24-7h-.43a53.92,53.92,0,0,0-7.37-6.9,52.37,52.37,0,0,0-.7,8.42A50.53,50.53,0,0,0,550.36,375.3Z" transform="translate(-495.7 -292.01)" fill="#f91e1e"/><path d="M625.42,315a60.48,60.48,0,0,1,15.71,17.43,65.38,65.38,0,0,1,10.39-3.31,69.62,69.62,0,0,0-31.85-30.45,145.34,145.34,0,0,0-17.59,6.38A53.65,53.65,0,0,1,625.42,315Z" transform="translate(-495.7 -292.01)" fill="#f91e1e"/><path d="M754,344.16a27.29,27.29,0,0,1,6.29,7,73,73,0,0,1,7.87-7.57c-12-17.83-34.75-21.48-50.81-8.17a38.55,38.55,0,0,0-7.35,8.17,73.79,73.79,0,0,1,7.86,7.57C726.08,338.13,742.26,335,754,344.16Z" transform="translate(-495.7 -292.01)" fill="#f91e1e"/><path d="M740.08,356.29c4.92.55,8.81,4.86,9.3,10.32a82.53,82.53,0,0,1,7.27-11.13c-6.1-10.78-18.92-14-28.64-7.26a22.2,22.2,0,0,0-6.54,7.26,83.66,83.66,0,0,1,7.24,11.13C729.29,360.27,734.38,355.65,740.08,356.29Z" transform="translate(-495.7 -292.01)" fill="#f91e1e"/><path d="M696.52,334.68a70.2,70.2,0,0,1,9.19,5.56c13.64-20.43,39.62-24.72,58-9.59a44.29,44.29,0,0,1,8.64,9.59c.86-.61,1.75-1.16,2.63-1.73-7.25-11-18.26-20.63-32-28.26a47.91,47.91,0,0,0-33.71,10.2A54.84,54.84,0,0,0,696.52,334.68Z" transform="translate(-495.7 -292.01)" fill="#f91e1e"/><path d="M687.78,391.21a73,73,0,0,1,7.87-7.58,39.4,39.4,0,0,0-25-16.63H666v1h-3.33c-10.26,1-19.26,6.94-25.13,15.64a73.89,73.89,0,0,1,7.86,7.58c4.86-7.63,12.75-12.17,20.6-12.19h0A25.52,25.52,0,0,1,687.78,391.21Z" transform="translate(-495.7 -292.01)" fill="#f91e1e"/><path d="M666,350.47h0s-27.21,6.61-36.63,17.23a56.66,56.66,0,0,0-5.28,7.06,69.12,69.12,0,0,1,9.19,5.56A36.76,36.76,0,0,1,646.49,368h.28c5.84-4,20.23-6,20.23-6h0s13.14,2,19,6h.72a37,37,0,0,1,13.24,12.32,70.61,70.61,0,0,1,9.17-5.56,41.43,41.43,0,0,0-5.24-6.76h-.44C694,357.11,666,350.47,666,350.47Z" transform="translate(-495.7 -292.01)" fill="#f91e1e"/><path d="M572.48,351.14c8.24-13,24.42-16.12,36.14-7a27.48,27.48,0,0,1,6.29,7,73,73,0,0,1,7.86-7.58c-12-17.82-34.74-21.48-50.8-8.16a38.3,38.3,0,0,0-7.36,8.16A73,73,0,0,1,572.48,351.14Z" transform="translate(-495.7 -292.01)" fill="#f91e1e"/><path d="M594.73,356.3c4.92.55,8.8,4.86,9.3,10.31a80.55,80.55,0,0,1,7.27-11.12c-6.1-10.78-18.93-14-28.64-7.26a22.13,22.13,0,0,0-6.55,7.26,83.27,83.27,0,0,1,7.25,11.12C583.93,360.28,589,355.66,594.73,356.3Z" transform="translate(-495.7 -292.01)" fill="#f91e1e"/></g><polygon points="153.01 13.49 101.91 136.3 74.39 102.55 82.25 80.05 96.99 101.61 124.51 28.49 75.49 28.49 37.98 115.53 7.07 131.42 51.68 28.49 33.12 28.49 41.96 13.49 61.51 13.49 153.01 13.49" fill="#231f1f" stroke="#fff8f8" stroke-miterlimit="10" stroke-width="3"/><polygon points="163.36 49.42 188.24 67.11 199.28 51.81 164.82 27.47 163.36 49.42" fill="#231e1e" stroke="#fff" stroke-miterlimit="10" stroke-width="3"/><polygon points="177.66 140.49 266.82 11.49 239.73 11.49 149.69 140.49 177.66 140.49" fill="#231f1f" stroke="#fff" stroke-miterlimit="10" stroke-width="3"/><polygon points="164.02 24.12 202.02 51.12 189.02 70.12 162.02 51.12 164.02 24.12" fill="none" stroke="#231f1f" stroke-miterlimit="10" stroke-width="2"/><polygon points="238.93 8.99 270.89 8.99 179.13 141.99 146.14 141.99 238.93 8.99" fill="none" stroke="#231f1f" stroke-miterlimit="10" stroke-width="2"/><polygon points="282.3 139.49 368.69 14.49 342.43 14.49 255.19 139.49 282.3 139.49" fill="#231f1f" stroke="#fff" stroke-miterlimit="10" stroke-width="3"/><polygon points="341.69 12.99 372.69 12.99 283.69 141.99 251.69 141.99 341.69 12.99" fill="none" stroke="#231f1f" stroke-miterlimit="10" stroke-width="2"/><polygon points="251.28 77.13 271.7 91.65 280.77 79.09 252.48 59.11 251.28 77.13" fill="#231e1e" stroke="#fff" stroke-miterlimit="10" stroke-width="3"/><polygon points="251.82 56.36 283.01 78.53 272.34 94.12 250.18 78.53 251.82 56.36" fill="none" stroke="#231f1f" stroke-miterlimit="10" stroke-width="2"/><polygon points="266.36 51.66 291.24 69.35 302.28 54.05 267.82 29.71 266.36 51.66" fill="#231e1e" stroke="#fff" stroke-miterlimit="10" stroke-width="3"/><polygon points="267.01 26.36 305.01 53.36 292.01 72.36 265.01 53.36 267.01 26.36" fill="none" stroke="#231f1f" stroke-miterlimit="10" stroke-width="2"/><polygon points="313.19 9.51 316.54 17.94 321.77 15.91 317.1 4.28 313.19 9.51" fill="#231e1e" stroke="#fff" stroke-miterlimit="10" stroke-width="3"/><polygon points="317.44 3.31 322.56 16.18 316.25 18.82 312.59 9.72 317.44 3.31" fill="none" stroke="#231f1f" stroke-miterlimit="10" stroke-width="2"/><polygon points="299.73 23.11 305.94 29.72 310.05 25.91 301.44 16.8 299.73 23.11" fill="#231e1e" stroke="#fff" stroke-miterlimit="10" stroke-width="3"/><polygon points="301.4 15.78 310.89 25.86 305.99 30.64 299.24 23.53 301.4 15.78" fill="none" stroke="#231f1f" stroke-miterlimit="10" stroke-width="2"/><path d="M608.47,412.13" transform="translate(-495.7 -292.01)" fill="none" stroke="#231f1f" stroke-miterlimit="10"/><polygon points="152.63 172.99 193.94 173.21 190.07 166.99 148.63 166.56 152.63 172.99" fill="#231f1f" stroke="#fff" stroke-miterlimit="10" stroke-width="2"/><polygon points="189.67 166.88 194.06 173.49 153.12 173.31 148.59 166.49 189.67 166.88" fill="none" stroke="#231f1f" stroke-miterlimit="10"/><rect x="212.3" y="153.99" width="4" height="31" fill="#231f1f" stroke="#fff" stroke-miterlimit="10" stroke-width="0.25"/><polygon points="216.79 161.79 230.8 172.8 230.81 169.47 216.8 158.36 216.79 161.79" fill="#231f1f" stroke="#fff" stroke-miterlimit="10"/><polygon points="230.8 169.25 230.79 173.05 216.8 162.09 216.81 158.16 230.8 169.25" fill="none" stroke="#231f1f" stroke-miterlimit="10" stroke-width="0.75"/><rect x="210.8" y="153.49" width="6" height="33" fill="none" stroke="#231f1f" stroke-miterlimit="10"/><line x1="223.52" y1="153.62" x2="225.52" y2="156.62" fill="none" stroke="#231f1f" stroke-miterlimit="10" stroke-width="0.75"/><line x1="220.25" y1="153.42" x2="222.25" y2="156.42" fill="none" stroke="#231f1f" stroke-miterlimit="10" stroke-width="0.75"/><polygon points="9.02 129.99 63.02 4.99 83.02 4.99 36.02 115.99 9.02 129.99" fill="#231f1f"/><polygon points="40.02 10.99 40.43 10.99 57.02 10.99 61.02 1.99 85.02 1.99 86.02 1.99 87.02 1.99 84.02 10.99 157.02 10.99 103.02 141.99 72.02 103.99 82.02 75.99 97.02 98.99 123.02 29.99 77.02 29.99 39.02 118.99 2.02 137.99 48.02 30.99 30.02 30.99 29.02 30.99 28.02 30.99 40.02 10.99" fill="none" stroke="#231f1f" stroke-miterlimit="10" stroke-width="2"/><path d="M646.51,292.89" transform="translate(-495.7 -292.01)" fill="#ed1c24"/><path d="M650.84,286.93" transform="translate(-495.7 -292.01)" fill="#ed1c24"/><path d="M648.16,296.77" transform="translate(-495.7 -292.01)" fill="#ed1c24"/><path d="M646,297.08" transform="translate(-495.7 -292.01)" fill="#ed1c24"/><path d="M633.55,294.41" transform="translate(-495.7 -292.01)" fill="#ed1c24"/><path d="M573.85,296" transform="translate(-495.7 -292.01)" fill="#fff"/><path d="M621.52,294.82" transform="translate(-495.7 -292.01)" fill="#ed1c24"/><path d="M756.59,294.66" transform="translate(-495.7 -292.01)" fill="#ed1c24"/><path d="M757,291.77" transform="translate(-495.7 -292.01)" fill="#ed1c24"/><polygon points="141.11 155.49 123.06 188.24 113.34 179.24 116.12 173.24 121.33 178.99 131.04 159.49 113.73 159.49 100.49 182.7 89.58 186.94 105.33 159.49 98.77 159.49 101.89 155.49 108.8 155.49 141.11 155.49" fill="#231f1f" stroke="#fff8f8" stroke-miterlimit="10"/><polygon points="90.39 186.14 109.36 152.99 116.39 152.99 99.88 182.43 90.39 186.14" fill="#231f1f"/><polygon points="101.28 154.49 101.43 154.49 107.25 154.49 108.66 152.49 117.09 152.49 117.44 152.49 117.79 152.49 116.74 154.49 142.26 154.49 123.44 188.96 112.64 178.96 116.12 171.59 121.35 177.65 130.41 159.49 114.28 159.49 100.93 183.15 87.94 188.19 104.09 160.49 97.77 160.49 97.42 160.49 97.07 160.49 101.28 154.49" fill="none" stroke="#231f1f" stroke-miterlimit="10"/></svg>